<?xml version="1.0" encoding="utf-8"?>
<!-- Generator: Adobe Illustrator 22.1.0, SVG Export Plug-In . SVG Version: 6.00 Build 0)  -->
<svg version="1.1" id="レイヤー_1" xmlns="http://www.w3.org/2000/svg" xmlns:xlink="http://www.w3.org/1999/xlink" x="0px"
	 y="0px" viewBox="0 0 2834.6 2834.6" style="enable-background:new 0 0 2834.6 2834.6;" xml:space="preserve">
<title>icon</title>
<path d="M1576.4,1406.8L2784,199.2c22.1-22.2,22.1-58,0-80.2l-78.9-78.9c-22.2-22.1-58-22.1-80.2,0L1417.3,1247.7L209.8,40.1
	c-22.2-22.1-58-22.1-80.2,0L50.7,119c-22.1,22.2-22.1,58,0,80.2l1207.6,1207.6L50.7,2614.3c-22.1,22.2-22.1,58,0,80.2l78.9,78.9
	c22.2,22.1,58,22.1,80.2,0l1207.6-1207.6l1207.6,1207.6c22.2,22.1,58,22.1,80.2,0l78.9-78.9c22.1-22.2,22.1-58,0-80.2L1576.4,1406.8
	z"/>
</svg>
